<mxfile host="app.diagrams.net" modified="2024-04-23T03:31:33.351Z" agent="Mozilla/5.0 (Windows NT 10.0; Win64; x64) AppleWebKit/537.36 (KHTML, like Gecko) Chrome/124.0.0.0 Safari/537.36" etag="eQvr9ND2N-2zLXY0tQzm" version="24.2.7" type="device">
  <diagram name="Page-1" id="WCAnSGV_UoAGxaOJ7xLK">
    <mxGraphModel dx="1313" dy="761" grid="1" gridSize="10" guides="1" tooltips="1" connect="1" arrows="1" fold="1" page="1" pageScale="1" pageWidth="850" pageHeight="1100" background="#000000" math="0" shadow="0">
      <root>
        <mxCell id="0" />
        <mxCell id="1" parent="0" />
        <mxCell id="1wmA76lb959CnuCcKSCz-21" style="edgeStyle=orthogonalEdgeStyle;rounded=0;orthogonalLoop=1;jettySize=auto;html=1;exitX=0.5;exitY=1;exitDx=0;exitDy=0;exitPerimeter=0;entryX=0.5;entryY=0;entryDx=0;entryDy=0;strokeColor=#FFFFFF;strokeWidth=3;" edge="1" parent="1" source="1wmA76lb959CnuCcKSCz-1" target="1wmA76lb959CnuCcKSCz-4">
          <mxGeometry relative="1" as="geometry" />
        </mxCell>
        <mxCell id="1wmA76lb959CnuCcKSCz-1" value="&lt;span style=&quot;color: rgb(255, 255, 255); font-size: 16px; text-wrap: wrap;&quot;&gt;Execute Show Journal Function&lt;/span&gt;" style="verticalLabelPosition=middle;verticalAlign=middle;html=1;shape=mxgraph.flowchart.on-page_reference;fillColor=none;strokeColor=#FFFFFF;strokeWidth=10;labelPosition=center;align=center;fontSize=16;" vertex="1" parent="1">
          <mxGeometry x="370" y="10" width="110" height="110" as="geometry" />
        </mxCell>
        <mxCell id="1wmA76lb959CnuCcKSCz-3" style="edgeStyle=orthogonalEdgeStyle;rounded=0;orthogonalLoop=1;jettySize=auto;html=1;exitX=0.5;exitY=1;exitDx=0;exitDy=0;entryX=0.5;entryY=0;entryDx=0;entryDy=0;strokeColor=#FFFFFF;strokeWidth=3;" edge="1" parent="1" source="1wmA76lb959CnuCcKSCz-4" target="1wmA76lb959CnuCcKSCz-16">
          <mxGeometry relative="1" as="geometry" />
        </mxCell>
        <mxCell id="1wmA76lb959CnuCcKSCz-4" value="&lt;div style=&quot;display: flex; justify-content: center; text-align: center; align-items: baseline; line-height: 1.25; margin-top: -2px;&quot;&gt;&lt;font style=&quot;font-size: 18px;&quot;&gt;Execute Show Journal Function&lt;/font&gt;&lt;/div&gt;" style="html=1;overflow=block;blockSpacing=1;whiteSpace=wrap;fontSize=13;spacing=3.8;strokeColor=#006EAF;rounded=1;absoluteArcSize=1;arcSize=9;fillColor=#1ba1e2;strokeWidth=NaN;lucidId=r1av457.JjQZ;fontColor=#ffffff;" vertex="1" parent="1">
          <mxGeometry x="351.46" y="170" width="147.36" height="90" as="geometry" />
        </mxCell>
        <mxCell id="1wmA76lb959CnuCcKSCz-5" style="edgeStyle=orthogonalEdgeStyle;rounded=0;orthogonalLoop=1;jettySize=auto;html=1;exitX=0.5;exitY=1;exitDx=0;exitDy=0;entryX=0.5;entryY=0;entryDx=0;entryDy=0;strokeColor=#005700;strokeWidth=3;fillColor=#008a00;" edge="1" parent="1" source="1wmA76lb959CnuCcKSCz-17" target="1wmA76lb959CnuCcKSCz-12">
          <mxGeometry relative="1" as="geometry">
            <mxPoint x="425.14" y="502.0000000000002" as="sourcePoint" />
          </mxGeometry>
        </mxCell>
        <mxCell id="1wmA76lb959CnuCcKSCz-26" value="&lt;span style=&quot;color: rgb(255, 255, 255); background-color: rgb(0, 0, 0);&quot;&gt;Choice Number 1&lt;/span&gt;" style="edgeLabel;html=1;align=center;verticalAlign=middle;resizable=0;points=[];" vertex="1" connectable="0" parent="1wmA76lb959CnuCcKSCz-5">
          <mxGeometry x="-0.28" y="-5" relative="1" as="geometry">
            <mxPoint y="-1" as="offset" />
          </mxGeometry>
        </mxCell>
        <mxCell id="1wmA76lb959CnuCcKSCz-6" style="edgeStyle=orthogonalEdgeStyle;rounded=0;orthogonalLoop=1;jettySize=auto;html=1;exitX=0.5;exitY=1;exitDx=0;exitDy=0;entryX=0.5;entryY=0;entryDx=0;entryDy=0;strokeWidth=3;strokeColor=#005700;fillColor=#008a00;" edge="1" parent="1" source="1wmA76lb959CnuCcKSCz-12" target="1wmA76lb959CnuCcKSCz-14">
          <mxGeometry relative="1" as="geometry" />
        </mxCell>
        <mxCell id="1wmA76lb959CnuCcKSCz-7" value="&lt;font style=&quot;background-color: rgb(0, 0, 0);&quot; color=&quot;#ffffff&quot;&gt;Valid Journal Numbers&lt;/font&gt;" style="edgeLabel;html=1;align=center;verticalAlign=middle;resizable=0;points=[];" vertex="1" connectable="0" parent="1wmA76lb959CnuCcKSCz-6">
          <mxGeometry x="-0.2299" relative="1" as="geometry">
            <mxPoint as="offset" />
          </mxGeometry>
        </mxCell>
        <mxCell id="1wmA76lb959CnuCcKSCz-8" style="edgeStyle=orthogonalEdgeStyle;rounded=0;orthogonalLoop=1;jettySize=auto;html=1;exitX=0;exitY=0.5;exitDx=0;exitDy=0;entryX=0;entryY=0.5;entryDx=0;entryDy=0;strokeColor=#FF0000;strokeWidth=3;" edge="1" parent="1" source="1wmA76lb959CnuCcKSCz-12" target="1wmA76lb959CnuCcKSCz-17">
          <mxGeometry relative="1" as="geometry" />
        </mxCell>
        <mxCell id="1wmA76lb959CnuCcKSCz-9" value="&lt;span style=&quot;color: rgb(255, 255, 255); background-color: rgb(0, 0, 0);&quot;&gt;Invalid Journal Numbers&lt;/span&gt;" style="edgeLabel;html=1;align=center;verticalAlign=middle;resizable=0;points=[];" vertex="1" connectable="0" parent="1wmA76lb959CnuCcKSCz-8">
          <mxGeometry x="-0.2474" y="-1" relative="1" as="geometry">
            <mxPoint y="-11" as="offset" />
          </mxGeometry>
        </mxCell>
        <mxCell id="1wmA76lb959CnuCcKSCz-12" value="&lt;div&gt;&lt;span style=&quot;font-size: 18px;&quot;&gt;Choosing&amp;nbsp;&lt;/span&gt;&lt;/div&gt;&lt;div&gt;&lt;font style=&quot;font-size: 18px;&quot;&gt;Journal&lt;/font&gt;&lt;/div&gt;" style="html=1;overflow=block;blockSpacing=1;whiteSpace=wrap;rhombus;fontSize=16.7;fontColor=#ffffff;spacing=3.8;strokeColor=#006EAF;rounded=1;absoluteArcSize=1;arcSize=9;fillColor=#1ba1e2;strokeWidth=NaN;lucidId=x_avSaIK2IV_;" vertex="1" parent="1">
          <mxGeometry x="344.03999999999996" y="638" width="162.2" height="122" as="geometry" />
        </mxCell>
        <mxCell id="1wmA76lb959CnuCcKSCz-13" style="edgeStyle=orthogonalEdgeStyle;rounded=0;orthogonalLoop=1;jettySize=auto;html=1;exitX=0.5;exitY=1;exitDx=0;exitDy=0;entryX=0.5;entryY=0;entryDx=0;entryDy=0;strokeColor=#FFFFFF;strokeWidth=3;" edge="1" parent="1" source="1wmA76lb959CnuCcKSCz-14">
          <mxGeometry relative="1" as="geometry">
            <mxPoint x="425.1400000000001" y="974" as="targetPoint" />
          </mxGeometry>
        </mxCell>
        <mxCell id="1wmA76lb959CnuCcKSCz-14" value="Show Selected Journal Details" style="html=1;overflow=block;blockSpacing=1;whiteSpace=wrap;fontSize=17;spacing=3.8;strokeColor=#006EAF;rounded=1;absoluteArcSize=1;arcSize=9;fillColor=#1ba1e2;strokeWidth=NaN;lucidId=xdbvFR-ZrNtJ;fontColor=#ffffff;" vertex="1" parent="1">
          <mxGeometry x="356.64" y="828" width="137" height="90" as="geometry" />
        </mxCell>
        <mxCell id="1wmA76lb959CnuCcKSCz-15" style="edgeStyle=orthogonalEdgeStyle;rounded=0;orthogonalLoop=1;jettySize=auto;html=1;exitX=0.5;exitY=1;exitDx=0;exitDy=0;entryX=0.5;entryY=0;entryDx=0;entryDy=0;strokeColor=#FFFFFF;strokeWidth=3;" edge="1" parent="1" source="1wmA76lb959CnuCcKSCz-16" target="1wmA76lb959CnuCcKSCz-17">
          <mxGeometry relative="1" as="geometry" />
        </mxCell>
        <mxCell id="1wmA76lb959CnuCcKSCz-16" value="Show Journal Titles" style="html=1;overflow=block;blockSpacing=1;whiteSpace=wrap;fontSize=17;spacing=3.8;strokeColor=#006EAF;rounded=1;absoluteArcSize=1;arcSize=0;fillColor=#1ba1e2;strokeWidth=NaN;lucidId=QcbvUz2D9Ue8;fontColor=#ffffff;" vertex="1" parent="1">
          <mxGeometry x="356.64" y="292" width="137" height="90" as="geometry" />
        </mxCell>
        <mxCell id="1wmA76lb959CnuCcKSCz-17" value="&lt;font style=&quot;font-size: 14px;&quot;&gt;Deciding Back or&lt;br&gt;View Details&lt;/font&gt;" style="html=1;overflow=block;blockSpacing=1;whiteSpace=wrap;rhombus;fontSize=16.7;fontColor=#ffffff;spacing=3.8;strokeColor=#006EAF;rounded=1;absoluteArcSize=1;arcSize=9;fillColor=#1ba1e2;strokeWidth=NaN;lucidId=x_avSaIK2IV_;" vertex="1" parent="1">
          <mxGeometry x="344.03999999999996" y="441" width="162.2" height="122" as="geometry" />
        </mxCell>
        <mxCell id="1wmA76lb959CnuCcKSCz-18" style="edgeStyle=orthogonalEdgeStyle;rounded=0;orthogonalLoop=1;jettySize=auto;html=1;exitX=1;exitY=0.5;exitDx=0;exitDy=0;entryX=1;entryY=0.5;entryDx=0;entryDy=0;fillColor=#008a00;strokeColor=#005700;strokeWidth=3;" edge="1" parent="1" target="1wmA76lb959CnuCcKSCz-12">
          <mxGeometry relative="1" as="geometry">
            <Array as="points">
              <mxPoint x="534" y="1035" />
              <mxPoint x="534" y="699" />
            </Array>
            <mxPoint x="506.24" y="1035" as="sourcePoint" />
          </mxGeometry>
        </mxCell>
        <mxCell id="1wmA76lb959CnuCcKSCz-19" value="&lt;span style=&quot;color: rgb(255, 255, 255); background-color: rgb(0, 0, 0);&quot;&gt;Choice Number 1&lt;/span&gt;" style="edgeLabel;html=1;align=center;verticalAlign=middle;resizable=0;points=[];" vertex="1" connectable="0" parent="1wmA76lb959CnuCcKSCz-18">
          <mxGeometry x="-0.1716" y="-2" relative="1" as="geometry">
            <mxPoint x="3" y="90" as="offset" />
          </mxGeometry>
        </mxCell>
        <mxCell id="1wmA76lb959CnuCcKSCz-20" value="&lt;font style=&quot;font-size: 13px;&quot;&gt;Determining&lt;/font&gt;&lt;div&gt;&lt;font style=&quot;font-size: 13px;&quot;&gt;Back or See&lt;/font&gt;&lt;/div&gt;&lt;div&gt;&lt;font style=&quot;font-size: 13px;&quot;&gt;Journal Details&lt;/font&gt;&lt;/div&gt;" style="html=1;overflow=block;blockSpacing=1;whiteSpace=wrap;rhombus;fontSize=16.7;fontColor=#ffffff;spacing=3.8;strokeColor=#006EAF;rounded=1;absoluteArcSize=1;arcSize=9;fillColor=#1ba1e2;strokeWidth=NaN;lucidId=x_avSaIK2IV_;" vertex="1" parent="1">
          <mxGeometry x="345.03999999999996" y="974" width="162.2" height="122" as="geometry" />
        </mxCell>
        <mxCell id="1wmA76lb959CnuCcKSCz-22" value="&lt;span style=&quot;color: rgb(255, 255, 255); font-size: 17px; text-wrap: wrap;&quot;&gt;Main Menu&lt;/span&gt;" style="verticalLabelPosition=middle;verticalAlign=middle;html=1;shape=mxgraph.flowchart.on-page_reference;fillColor=none;strokeColor=#FFFFFF;strokeWidth=10;labelPosition=center;align=center;" vertex="1" parent="1">
          <mxGeometry x="79" y="980" width="110" height="110" as="geometry" />
        </mxCell>
        <mxCell id="1wmA76lb959CnuCcKSCz-23" style="edgeStyle=orthogonalEdgeStyle;rounded=0;orthogonalLoop=1;jettySize=auto;html=1;exitX=0;exitY=0.5;exitDx=0;exitDy=0;entryX=1;entryY=0.5;entryDx=0;entryDy=0;entryPerimeter=0;strokeColor=#FF0000;strokeWidth=3;" edge="1" parent="1" target="1wmA76lb959CnuCcKSCz-22">
          <mxGeometry relative="1" as="geometry">
            <mxPoint x="344.03999999999996" y="1035" as="sourcePoint" />
          </mxGeometry>
        </mxCell>
        <mxCell id="1wmA76lb959CnuCcKSCz-24" value="&lt;span style=&quot;color: rgb(255, 255, 255); background-color: rgb(0, 0, 0);&quot;&gt;Choice Number 0&lt;/span&gt;" style="edgeLabel;html=1;align=center;verticalAlign=middle;resizable=0;points=[];" vertex="1" connectable="0" parent="1wmA76lb959CnuCcKSCz-23">
          <mxGeometry x="-0.118" y="-1" relative="1" as="geometry">
            <mxPoint as="offset" />
          </mxGeometry>
        </mxCell>
        <mxCell id="1wmA76lb959CnuCcKSCz-25" value="&lt;span style=&quot;color: rgb(255, 255, 255); font-size: 17px; text-wrap: wrap;&quot;&gt;Main Menu&lt;/span&gt;" style="verticalLabelPosition=middle;verticalAlign=middle;html=1;shape=mxgraph.flowchart.on-page_reference;fillColor=none;strokeColor=#FFFFFF;strokeWidth=10;labelPosition=center;align=center;" vertex="1" parent="1">
          <mxGeometry x="670" y="447" width="110" height="110" as="geometry" />
        </mxCell>
        <mxCell id="1wmA76lb959CnuCcKSCz-27" style="edgeStyle=orthogonalEdgeStyle;rounded=0;orthogonalLoop=1;jettySize=auto;html=1;exitX=1;exitY=0.5;exitDx=0;exitDy=0;entryX=0;entryY=0.5;entryDx=0;entryDy=0;entryPerimeter=0;strokeColor=#FF0000;strokeWidth=3;" edge="1" parent="1" source="1wmA76lb959CnuCcKSCz-17" target="1wmA76lb959CnuCcKSCz-25">
          <mxGeometry relative="1" as="geometry" />
        </mxCell>
        <mxCell id="1wmA76lb959CnuCcKSCz-28" value="&lt;span style=&quot;color: rgb(255, 255, 255); background-color: rgb(0, 0, 0);&quot;&gt;Choice Number 0&lt;/span&gt;" style="edgeLabel;html=1;align=center;verticalAlign=middle;resizable=0;points=[];" vertex="1" connectable="0" parent="1wmA76lb959CnuCcKSCz-27">
          <mxGeometry x="-0.1912" relative="1" as="geometry">
            <mxPoint x="7" as="offset" />
          </mxGeometry>
        </mxCell>
      </root>
    </mxGraphModel>
  </diagram>
</mxfile>
